<?xml version="1.0" standalone="no"?>
<!DOCTYPE svg PUBLIC "-//W3C//DTD SVG 20010904//EN"
 "http://www.w3.org/TR/2001/REC-SVG-20010904/DTD/svg10.dtd">
<svg version="1.0" xmlns="http://www.w3.org/2000/svg"
 width="2400.000000pt" height="2400.000000pt" viewBox="0 0 2400.000000 2400.000000"
 preserveAspectRatio="xMidYMid meet">

<g transform="translate(0.000000,2400.000000) scale(0.100000,-0.100000)"
fill="#000000" stroke="none">
<path d="M2400 14871 c-19 -10 -44 -34 -55 -52 -20 -34 -20 -54 -23 -1583 -1
-1021 1 -1568 8 -1605 6 -31 19 -65 33 -79 46 -51 57 -52 489 -52 444 0 446 0
492 63 21 28 21 39 26 842 l5 814 402 -487 403 -487 0 -321 c0 -317 0 -321 23
-355 46 -70 43 -70 509 -67 403 3 417 4 445 24 15 11 36 36 45 55 17 32 18
130 18 1614 0 1484 -1 1582 -18 1615 -9 19 -32 45 -51 57 -34 23 -34 23 -448
23 -391 0 -416 -1 -452 -20 -73 -37 -71 -23 -71 -614 0 -289 -3 -526 -7 -525
-5 0 -206 228 -448 505 -242 278 -466 529 -497 559 -99 92 -115 95 -481 95
-286 0 -315 -2 -347 -19z"/>
<path d="M5950 14872 c-23 -11 -43 -33 -58 -62 l-22 -45 2 -1580 c3 -1505 4
-1582 21 -1613 11 -21 34 -41 60 -53 40 -18 84 -19 1179 -19 1270 0 1195 -4
1240 69 23 36 23 40 23 376 0 387 -1 390 -78 426 -40 18 -75 19 -714 19 l-673
0 0 199 0 200 488 3 c469 3 488 4 522 23 19 12 43 36 55 55 19 33 20 55 23
313 2 177 -1 296 -8 331 -12 61 -47 101 -101 116 -20 6 -228 10 -506 10 l-473
0 0 180 0 180 670 0 c750 0 729 -2 772 69 23 36 23 40 23 376 0 324 -1 342
-20 375 -44 75 45 70 -1240 70 -1075 0 -1152 -1 -1185 -18z"/>
<path d="M8983 14870 c-68 -41 -68 -39 -68 -395 0 -334 4 -375 46 -478 34 -82
94 -171 306 -455 l203 -274 -19 -26 c-11 -15 -110 -148 -220 -297 -117 -158
-217 -303 -240 -350 -70 -140 -73 -164 -78 -584 -5 -417 -3 -439 60 -483 32
-23 34 -23 450 -26 392 -3 420 -2 460 16 79 35 81 46 87 427 4 258 8 335 19
355 34 60 256 362 283 385 24 21 40 25 89 25 33 0 73 -6 88 -14 31 -16 278
-363 298 -418 8 -23 12 -130 13 -343 0 -285 2 -313 20 -353 15 -33 29 -47 62
-62 40 -18 68 -20 445 -20 454 0 464 1 505 69 23 36 23 37 22 426 -1 367 -2
395 -22 468 -12 44 -36 107 -55 140 -18 34 -133 196 -255 360 -212 284 -222
300 -209 320 9 12 103 141 211 287 203 275 268 377 298 467 28 83 40 240 36
505 -3 223 -5 246 -23 278 -41 70 -41 70 -505 70 -464 0 -464 0 -505 -70 -18
-32 -20 -57 -25 -295 -4 -227 -7 -264 -23 -293 -19 -34 -166 -242 -239 -339
-53 -70 -104 -86 -191 -62 -39 11 -83 66 -255 324 l-67 99 -5 266 c-6 297 -9
314 -80 351 -32 18 -64 19 -460 19 -404 0 -427 -1 -457 -20z"/>
<path d="M12233 14870 c-69 -42 -68 -35 -68 -431 0 -345 1 -358 21 -385 11
-15 33 -37 48 -48 26 -20 42 -21 407 -24 l379 -3 2 -1187 3 -1187 23 -36 c42
-68 49 -69 529 -69 409 0 428 1 469 20 28 14 48 33 61 58 17 35 18 94 21 1219
l2 1182 379 3 c365 3 381 4 407 24 15 11 37 33 48 48 20 26 21 42 24 369 3
339 3 342 -20 387 -44 87 78 80 -1398 80 -1276 0 -1306 -1 -1337 -20z"/>
<path d="M18590 14793 c-347 -14 -759 -80 -1081 -173 -402 -116 -812 -302
-1042 -472 l-68 -50 4 -1242 c4 -1335 2 -1272 56 -1483 92 -358 315 -716 661
-1064 308 -310 682 -590 1135 -849 178 -102 508 -270 532 -270 49 0 424 166
648 287 818 441 1384 1003 1625 1612 47 119 82 241 112 396 21 108 22 130 25
1362 l4 1252 -78 55 c-43 30 -139 89 -213 130 -652 362 -1484 545 -2320 509z
m720 -417 c333 -41 588 -95 835 -179 228 -77 369 -141 553 -250 l103 -61 -4
-1145 c-3 -1138 -3 -1147 -25 -1242 -60 -262 -169 -491 -345 -724 -277 -366
-759 -740 -1306 -1015 -42 -20 -86 -41 -98 -44 l-23 -7 0 345 0 346 -200 0
-200 0 0 -335 c0 -184 -4 -335 -9 -335 -23 0 -300 164 -479 283 -293 196 -506
371 -727 598 -297 305 -469 586 -553 903 l-27 101 -3 1137 -3 1136 58 37 c102
65 394 202 538 253 297 106 651 178 1035 211 164 15 721 6 880 -13z"/>
<path d="M17735 13794 c-11 -2 -45 -9 -75 -15 -69 -14 -198 -73 -281 -130
-125 -84 -277 -258 -348 -396 l-21 -43 142 96 c167 112 332 197 414 214 34 7
94 10 141 7 67 -4 95 -11 159 -42 103 -50 221 -167 322 -320 89 -136 120 -160
212 -160 54 0 72 5 106 28 84 57 115 177 67 260 -38 64 -204 257 -264 307 -79
66 -183 127 -266 155 -98 34 -241 52 -308 39z"/>
<path d="M19690 13789 c-143 -22 -298 -98 -420 -207 -78 -69 -226 -252 -253
-311 -36 -80 -2 -185 77 -238 34 -23 52 -28 106 -28 91 0 121 23 217 164 184
270 372 416 551 428 153 10 263 -53 552 -316 l71 -64 -21 54 c-61 157 -129
268 -213 350 -122 119 -247 166 -465 173 -75 3 -166 0 -202 -5z"/>
<path d="M17555 12983 c-130 -27 -263 -92 -324 -157 -24 -26 -24 -26 -5 -47
84 -94 310 -179 474 -179 164 0 390 85 474 179 19 21 19 21 0 42 -32 36 -126
95 -194 122 -140 55 -289 69 -425 40z"/>
<path d="M19755 12983 c-130 -27 -263 -92 -324 -157 -24 -26 -24 -26 -5 -47
84 -94 310 -179 474 -179 164 0 390 85 474 179 19 21 19 21 0 42 -32 36 -126
95 -194 122 -140 55 -289 69 -425 40z"/>
<path d="M17227 11759 c11 -19 145 -242 298 -496 l277 -463 396 0 397 0 102
102 103 103 103 -103 102 -102 396 0 396 0 283 473 c156 259 291 483 299 496
9 14 -162 -109 -380 -272 l-396 -297 -104 0 -104 0 -200 200 -200 200 -195 0
-195 0 -200 -200 -200 -200 -104 0 -104 0 -395 296 c-298 223 -390 288 -375
263z"/>
<path d="M14720 10685 l0 -195 -90 0 -90 0 0 -95 0 -95 90 0 90 0 0 -475 0
-475 105 0 105 0 0 475 0 475 90 0 90 0 0 95 0 95 -90 0 -90 0 0 195 0 195
-105 0 -105 0 0 -195z"/>
<path d="M13443 10478 c2 -7 100 -227 216 -489 l212 -476 -154 -349 -154 -349
110 -3 c61 -1 114 1 118 5 6 6 712 1597 736 1661 4 9 -22 12 -110 12 l-115 0
-154 -386 -155 -386 -113 278 c-62 154 -132 326 -155 384 l-43 105 -122 3
c-96 2 -121 0 -117 -10z"/>
<path d="M13013 9575 c-45 -19 -73 -69 -73 -129 0 -43 4 -53 38 -86 50 -50 96
-60 154 -31 53 25 78 65 78 123 0 105 -98 166 -197 123z"/>
</g>
</svg>
