<?xml version="1.0" standalone="no"?>
<!DOCTYPE svg PUBLIC "-//W3C//DTD SVG 20010904//EN"
 "http://www.w3.org/TR/2001/REC-SVG-20010904/DTD/svg10.dtd">
<svg version="1.0" xmlns="http://www.w3.org/2000/svg"
 width="2400.000000pt" height="2400.000000pt" viewBox="0 0 2400.000000 2400.000000"
 preserveAspectRatio="xMidYMid meet">

<g transform="translate(0.000000,2400.000000) scale(0.100000,-0.100000)"
fill="#000000" stroke="none">
<path d="M13495 22136 c-573 -41 -1134 -158 -1605 -336 l-133 -50 -3858 0
c-3427 0 -3866 -2 -3940 -15 -89 -17 -108 -23 -204 -63 -228 -98 -409 -313
-477 -572 l-23 -85 0 -8015 0 -8015 23 -85 c83 -313 309 -539 622 -622 l85
-23 8015 0 8015 0 85 23 c313 83 539 309 622 622 l23 85 0 8015 0 8015 -23 85
c-89 335 -342 572 -681 634 -73 14 -291 16 -1815 16 l-1731 0 -113 40 c-466
165 -1183 298 -1822 340 -267 17 -855 20 -1065 6z m-7075 -8671 l0 -7785 1240
0 1240 0 0 4898 c0 4325 2 4916 15 5053 117 1175 490 2129 1136 2903 563 675
1254 1136 2035 1360 416 119 884 169 1384 146 486 -22 817 -68 1200 -170 931
-246 1618 -748 2082 -1520 410 -681 625 -1538 668 -2660 6 -156 10 -2147 10
-5132 l0 -4878 1240 0 1240 0 0 4908 c0 4699 -3 5284 -30 5732 -89 1492 -437
2697 -1043 3618 -320 485 -754 927 -1222 1245 l-99 67 1239 -2 1240 -3 56 -28
c67 -32 142 -109 172 -175 l22 -47 0 -7995 0 -7995 -23 -46 c-46 -95 -119
-160 -216 -192 -46 -16 -611 -17 -8006 -17 -7395 0 -7960 1 -8006 17 -97 32
-170 97 -216 192 l-23 46 0 7995 0 7995 22 47 c25 54 90 128 140 159 79 49 43
48 1311 48 l1192 1 0 -7785z m4189 7682 c-543 -361 -996 -792 -1395 -1327 -96
-128 -267 -379 -293 -427 -6 -13 -15 -23 -19 -23 -5 0 -7 1799 -3 1873 1 4
420 7 933 7 l932 0 -155 -103z"/>
<path d="M12348 3511 c-3 -69 -10 -108 -21 -125 -19 -28 -71 -46 -134 -46
l-43 0 0 -45 0 -45 95 0 94 0 3 -347 3 -348 28 -47 c17 -29 44 -57 70 -72 73
-43 211 -56 314 -30 20 5 23 12 23 56 0 44 -2 49 -20 43 -41 -13 -175 -8 -205
7 -81 42 -85 65 -85 429 l0 309 150 0 150 0 0 50 0 50 -150 0 -150 0 0 130 0
130 -59 0 -58 0 -5 -99z"/>
<path d="M14590 3507 c0 -76 -4 -108 -15 -124 -18 -26 -72 -43 -132 -43 l-43
0 0 -45 0 -45 89 0 89 0 4 -332 c3 -322 4 -335 26 -383 12 -27 30 -58 40 -68
51 -57 196 -88 311 -68 l71 13 0 50 0 50 -31 -7 c-17 -4 -61 -7 -98 -7 -89 -1
-134 20 -161 76 -19 40 -20 60 -20 359 l0 317 150 0 150 0 0 50 0 50 -150 0
-150 0 0 130 0 130 -65 0 -65 0 0 -103z"/>
<path d="M9458 3336 c-62 -26 -119 -67 -168 -122 -17 -20 -33 -35 -34 -33 -2
2 -7 40 -12 84 l-9 80 -127 3 -128 3 0 -45 c0 -47 0 -47 67 -61 18 -3 44 -15
58 -26 l25 -20 0 -309 c0 -189 -4 -319 -10 -336 -15 -38 -37 -52 -92 -60 -48
-7 -48 -7 -48 -45 l0 -39 205 0 205 0 0 40 c0 40 0 40 -39 40 -22 0 -51 4 -65
10 l-26 10 0 287 0 287 60 59 c80 77 154 112 240 112 47 0 74 -6 97 -20 61
-36 63 -48 63 -408 l0 -324 -31 -7 c-17 -3 -47 -6 -65 -6 -33 0 -34 -1 -34
-40 l0 -40 210 0 210 0 0 39 0 38 -49 7 c-27 4 -60 15 -73 25 l-23 19 -5 324
c-5 302 -6 326 -26 369 -43 92 -111 129 -237 129 -63 0 -95 -6 -139 -24z"/>
<path d="M10443 3346 c-195 -63 -314 -264 -300 -506 2 -47 12 -111 21 -142 22
-72 81 -165 134 -206 131 -104 332 -129 487 -61 54 24 175 136 175 163 0 8
-16 27 -36 42 l-36 28 -26 -35 c-81 -104 -163 -144 -282 -137 -153 9 -253 97
-286 253 -23 106 -60 95 326 95 l340 0 0 64 c0 36 -7 98 -15 138 -31 145 -92
236 -193 285 -50 24 -70 28 -162 30 -68 2 -120 -2 -147 -11z m234 -102 c23 -9
53 -29 67 -45 34 -40 64 -125 72 -203 l7 -66 -266 0 c-146 0 -268 4 -271 9
-10 15 32 158 57 199 72 113 199 154 334 106z"/>
<path d="M11090 3306 c0 -43 1 -44 38 -50 55 -8 77 -29 222 -207 l130 -160
-143 -172 c-149 -179 -191 -217 -238 -217 -28 0 -29 -2 -29 -45 l0 -45 196 0
195 0 -3 43 -3 42 -51 6 c-28 4 -60 12 -73 18 -21 12 -21 13 -4 35 10 12 62
77 117 144 l98 121 76 -92 c41 -50 97 -118 124 -150 26 -32 48 -63 48 -68 0
-5 -31 -9 -70 -9 l-70 0 0 -45 0 -45 205 0 205 0 0 45 c0 44 -1 45 -32 45 -18
0 -47 9 -64 19 -27 16 -268 300 -304 357 -12 20 -3 33 121 182 134 162 182
202 238 202 20 0 22 4 19 43 l-3 42 -190 0 -190 0 -3 -41 -3 -41 59 -7 c106
-12 105 -14 -13 -156 -57 -69 -109 -125 -115 -125 -20 0 -230 269 -217 277 7
4 38 8 70 8 l57 0 0 45 0 45 -200 0 -200 0 0 -44z"/>
<path d="M13270 3306 l0 -43 45 -5 c25 -3 55 -12 67 -20 17 -11 66 -122 186
-419 89 -222 162 -412 162 -423 0 -26 -56 -128 -97 -176 -73 -85 -169 -105
-310 -64 -22 6 -23 4 -23 -54 0 -75 11 -84 121 -90 137 -8 230 42 313 167 59
89 90 157 246 546 221 549 203 517 289 531 41 7 41 7 41 50 l0 44 -195 0 -195
0 0 -44 0 -43 59 -7 c103 -12 106 10 -39 -354 -71 -178 -130 -326 -132 -328
-3 -2 -64 147 -137 333 -101 258 -129 338 -119 344 7 5 41 9 76 9 l62 0 0 45
0 45 -210 0 -210 0 0 -44z"/>
<path d="M13090 2624 c-65 -23 -90 -57 -90 -123 0 -131 218 -142 243 -12 7 36
-14 91 -43 112 -27 19 -85 31 -110 23z"/>
</g>
</svg>
